# xmcd
#
# Track frame offsets: 
#        150
#        4163
#        15748
#        20866
#        41207
#        59360
#        74395
#        98348
#        108598
#        113268
#        140469
#        152932
#        166325
#        183108
#        192267
#        208730
#        226435
#
# Disc length: 3143 seconds
#
# Revision: 0
# Processed by: cddbd v1.5.2PL0 Copyright (c) Steve Scherf et al.
# Submitted via: ExactAudioCopy v0.95b4
#
DISCID=e30c4511
DTITLE=Eric Clapton - His Majesty's Hand [CD3]
DYEAR=1994
DGENRE=Blues
TTITLE0=DJ - Introduction
TTITLE1=Blues leave me alone
TTITLE2=EC Interview
TTITLE3=Standing around crying
TTITLE4=Forty-four blues
TTITLE5=It hurts me too
TTITLE6=Five long years
TTITLE7=CM - Spot
TTITLE8=DJ EC Interview
TTITLE9=Crossroad blues
TTITLE10=Malted milk
TTITLE11=Motherless child
TTITLE12=How long blues
TTITLE13=CM - Spot
TTITLE14=Reconsider baby
TTITLE15=Sinner's prayer
TTITLE16=CM - Spot
EXTD=
EXTT0=
EXTT1=
EXTT2=
EXTT3=
EXTT4=
EXTT5=
EXTT6=
EXTT7=
EXTT8=
EXTT9=
EXTT10=
EXTT11=
EXTT12=
EXTT13=
EXTT14=
EXTT15=
EXTT16=
PLAYORDER=
